<svg data-name="Layer 1" xmlns="http://www.w3.org/2000/svg" width="104" height="26" viewBox="0 0 104 26"><title>video-player</title><circle cx="65" cy="13" r="13" opacity=".5" style="isolation:isolate"/><path d="M62.5 7A1.54 1.54 0 0 1 64 8.5v9a1.5 1.5 0 0 1-3 0v-9A1.47 1.47 0 0 1 62.5 7zm5 0A1.54 1.54 0 0 1 69 8.5v9a1.5 1.5 0 0 1-3 0v-9A1.47 1.47 0 0 1 67.5 7z" fill="#fff"/><circle cx="91" cy="13" r="13" opacity=".75" style="isolation:isolate"/><path d="M88.5 7A1.54 1.54 0 0 1 90 8.5v9a1.5 1.5 0 0 1-3 0v-9A1.47 1.47 0 0 1 88.5 7zm5 0A1.54 1.54 0 0 1 95 8.5v9a1.5 1.5 0 0 1-3 0v-9A1.47 1.47 0 0 1 93.5 7z" fill="#fff"/><circle cx="13" cy="13" r="13" opacity=".5" style="isolation:isolate"/><path d="M18.2 13.5l-7.9 4.4a.54.54 0 0 1-.8-.2c0-.1-.1-.2-.1-.3V8.5a.67.67 0 0 1 .7-.5.37.37 0 0 1 .3.1l7.9 4.4a.44.44 0 0 1 .2.7z" fill="#fff"/><circle cx="39" cy="13" r="13" opacity=".75" style="isolation:isolate"/><path d="M44.2 13.5l-7.9 4.4a.54.54 0 0 1-.8-.2c0-.1-.1-.2-.1-.3V8.5a.67.67 0 0 1 .7-.5.37.37 0 0 1 .3.1l7.9 4.4a.44.44 0 0 1 .2.7z" fill="#fff"/></svg>